<?xml version="1.0" standalone="no"?><!DOCTYPE svg PUBLIC "-//W3C//DTD SVG 1.1//EN" "http://www.w3.org/Graphics/SVG/1.1/DTD/svg11.dtd"><svg t="1775528143585" class="icon" viewBox="0 0 1024 1024" version="1.1" xmlns="http://www.w3.org/2000/svg" p-id="17533" xmlns:xlink="http://www.w3.org/1999/xlink" width="200" height="200"><path d="M476.689655 617.931034m-370.758621 0a370.758621 370.758621 0 1 0 741.517242 0 370.758621 370.758621 0 1 0-741.517242 0Z" fill="#70f3ff" p-id="17534"></path><path d="M20.391724 727.816828l0.459035-1.253518a259.831172 259.831172 0 0 1 7.062069-17.867034 310.060138 310.060138 0 0 1 11.564138-23.869793 372.930207 372.930207 0 0 1 10.257655-18.061242 438.23669 438.23669 0 0 1 7.379862-11.828965A476.407172 476.407172 0 0 1 35.310345 512C35.310345 248.726069 248.726069 35.310345 512 35.310345c149.963034 0 283.771586 69.261241 371.147034 177.522758 56.231724 5.826207 97.968552 25.900138 118.324966 61.157518 23.746207 41.136552 15.059862 97.068138-19.261793 159.161379 4.254897 25.63531 6.479448 51.976828 6.479448 78.848 0 263.273931-213.415724 476.689655-476.689655 476.689655-104.165517 0-200.509793-33.403586-278.951724-90.094345a505.114483 505.114483 0 0 1-47.951448 3.248552l-5.826207 0.070621c-75.422897 0.282483-131.61931-20.126897-156.336552-62.958345A95.514483 95.514483 0 0 1 12.358621 811.99669a109.726897 109.726897 0 0 1-2.189242-13.27669 132.890483 132.890483 0 0 1 0.723862-32.432552 177.858207 177.858207 0 0 1 4.043035-20.48 209.796414 209.796414 0 0 1 5.12-17.019586l-0.441379 1.271172 0.759172-2.242206z m878.697931-183.401931l-0.335448 0.353103a836.502069 836.502069 0 0 1-34.868966 35.398621 967.326897 967.326897 0 0 1-18.008275 16.843034l4.043034-3.707586a1012.18869 1012.18869 0 0 1-40.183172 35.239724 1128.041931 1128.041931 0 0 1-15.942621 13.064828 1214.322759 1214.322759 0 0 1-51.606069 39.265103 1302.121931 1302.121931 0 0 1-66.330483 44.808828 1386.107586 1386.107586 0 0 1-48.904827 29.572414c-90.394483 52.206345-180.859586 91.136-263.556414 115.712A387.10731 387.10731 0 0 0 512 900.413793c203.599448 0 370.599724-156.654345 387.072-355.998896zM103.45931 757.777655l-0.494344 1.412414a140.711724 140.711724 0 0 0-1.483035 4.766897c-5.031724 17.37269-4.502069 26.747586-2.118621 30.861241 2.365793 4.13131 10.222345 9.268966 27.789242 13.594483 4.237241 1.05931 8.792276 1.942069 13.594482 2.683586a482.198069 482.198069 0 0 1-37.287724-53.318621zM512 123.586207C297.489655 123.586207 123.586207 297.489655 123.586207 512c0 117.318621 52.012138 222.508138 134.249931 293.729103l5.420138-0.988689c95.19669-17.92 208.507586-61.810759 319.558621-125.934345 11.211034-6.479448 22.245517-13.064828 33.103448-19.773793l10.416552-6.497104a1288.651034 1288.651034 0 0 0 53.053793-35.310344 1204.612414 1204.612414 0 0 0 38.417655-28.177656l8.262621-6.391172a1103.960276 1103.960276 0 0 0 24.858482-20.00331l-6.17931 5.084689c3.03669-2.471724 6.038069-4.943448 9.004138-7.432827l-2.824828 2.348138c2.507034-2.065655 4.996414-4.148966 7.468138-6.232276l-4.625655 3.884138 8.721655-7.379862-4.096 3.495724c2.930759-2.471724 5.826207-4.961103 8.704-7.450483l-4.608 3.954759c2.807172-2.383448 5.579034-4.784552 8.315586-7.185656l-3.707586 3.230897 7.220966-6.302897-3.51338 3.072a946.970483 946.970483 0 0 0 20.268138-18.220137l-3.601655 3.319172c2.736552-2.52469 5.455448-5.031724 8.121379-7.538759l-4.519724 4.219587a869.075862 869.075862 0 0 0 19.950345-19.085242l-3.213241 3.177931a819.2 819.2 0 0 0 7.591724-7.503448l-4.360828 4.325517c2.436414-2.418759 4.855172-4.819862 7.238621-7.238621l-2.895448 2.913104c1.959724-1.977379 3.919448-3.937103 5.826207-5.914483l-2.948414 3.001379a757.195034 757.195034 0 0 0 17.213793-18.008275l-2.436414 2.612965c2.08331-2.224552 4.13131-4.431448 6.144-6.656l-3.707586 4.06069c3.177931-3.442759 6.267586-6.885517 9.321931-10.292966l-5.614345 6.232276c2.259862-2.471724 4.484414-4.961103 6.673655-7.432827l-1.05931 1.200551c1.57131-1.765517 3.124966-3.54869 4.660966-5.331862l-3.601656 4.131311c2.295172-2.612966 4.555034-5.208276 6.779587-7.803587l-3.177931 3.672276c2.59531-3.001379 5.15531-5.985103 7.644689-8.968827l-4.466758 5.296551c1.995034-2.348138 3.972414-4.678621 5.896827-7.009103l-1.430069 1.712552 4.590345-5.543725-3.160276 3.831173c2.189241-2.648276 4.325517-5.261241 6.426483-7.891862l-3.266207 4.060689c2.718897-3.354483 5.367172-6.673655 7.944828-9.992827 27.771586-35.663448 45.762207-68.148966 53.265655-94.066759 5.031724-17.390345 4.502069-26.747586 2.11862-30.878896-2.383448-4.113655-10.222345-9.25131-27.789241-13.594483-15.766069-3.884138-35.469241-5.649655-58.420965-5.12-20.709517-27.61269-40.448-50.582069-59.233104-68.961103A387.142621 387.142621 0 0 0 512 123.586207z" fill="#464646" p-id="17535"></path><path d="M635.586207 494.344828m-70.62069 0a70.62069 70.62069 0 1 0 141.24138 0 70.62069 70.62069 0 1 0-141.24138 0Z" fill="#6A6A6A" p-id="17536"></path><path d="M388.413793 494.344828m-70.62069 0a70.62069 70.62069 0 1 0 141.24138 0 70.62069 70.62069 0 1 0-141.24138 0Z" fill="#6A6A6A" p-id="17537"></path></svg>